<svg width="186" height="153" viewBox="0 0 186 153" fill="none" xmlns="http://www.w3.org/2000/svg">
<g clip-path="url(#clip0_13_5213)">
<path d="M24.1573 120.847H16.4411V152.213H11.1555V120.847H0V116.951H19.704C23.1101 116.951 27.2604 116.753 28.2084 116.549L28.3572 116.802C28.1588 119.449 26.7588 120.847 24.1573 120.847" fill="white"/>
<path d="M30.2091 130.384L29.6083 126.422C32.0264 125.693 34.5346 125.306 37.06 125.271C43.4645 125.271 47.2124 128.023 47.2124 134.626V147.013C47.2124 148.559 47.7636 149.407 49.0643 149.407C49.4456 149.407 49.8221 149.322 50.1666 149.159L50.365 149.357C50.2658 151.206 48.7612 152.604 46.6612 152.604C43.8117 152.604 42.7094 150.507 42.511 148.411H42.3622C39.9591 151.008 37.6112 153.006 34.1609 153.006C29.906 153.006 27.3596 149.858 27.3596 145.764C27.3596 141.219 30.4075 137.774 38.008 137.774C39.4462 137.782 40.883 137.865 42.3126 138.021V134.676C42.3126 130.824 40.3119 129.085 36.5089 129.085C34.3392 129.054 32.1891 129.497 30.2091 130.384M42.3346 141.12C40.995 140.907 39.6399 140.808 38.2836 140.822C33.5822 140.822 32.0831 142.666 32.0831 145.115C32.0831 147.112 33.2791 148.912 35.7317 148.912C38.3332 148.912 40.2347 147.211 42.3457 145.06L42.3346 141.12Z" fill="white"/>
<path d="M69.7713 148.609C69.8318 148.871 69.865 149.138 69.8705 149.407C69.8705 152.202 66.3707 153.005 64.2652 153.005C58.6158 153.005 56.2679 149.759 56.2679 143.915V129.283H53.0161L52.8672 128.986C53.0657 127.737 53.9696 126.636 56.1742 125.09L60.7764 121.843H61.1291V125.739H68.8454V129.283H61.1677V144.916C61.1677 147.91 62.8212 149.561 65.8691 149.561C67.1898 149.612 68.4903 149.225 69.5674 148.46L69.7713 148.609Z" fill="white"/>
<path d="M88.8745 148.609C88.935 148.871 88.9682 149.138 88.9737 149.407C88.9737 152.202 85.4739 153.005 83.374 153.005C77.7191 153.005 75.3711 149.759 75.3711 143.915V129.283H72.1193L71.9705 128.986C72.1689 127.737 73.0728 126.636 75.2774 125.09L79.8741 121.843H80.2268V125.739H87.9431V129.283H80.2709V144.916C80.2709 147.91 81.9244 149.561 84.9723 149.561C86.2946 149.611 87.5966 149.224 88.6761 148.46L88.8745 148.609Z" fill="white"/>
<path d="M100.526 153.006C99.3428 152.988 98.1667 152.82 97.0262 152.505L91.8232 125.739H96.927L101.11 148.912C101.458 148.969 101.81 149.002 102.163 149.011C107.013 149.011 109.328 140.921 109.328 134.879C109.328 132.183 108.529 128.826 106.528 128.826C106.156 128.825 105.792 128.928 105.475 129.123L105.277 128.975C105.216 128.747 105.183 128.512 105.178 128.276C105.163 127.881 105.23 127.487 105.376 127.119C105.522 126.752 105.743 126.418 106.025 126.141C106.307 125.863 106.644 125.648 107.015 125.507C107.385 125.367 107.781 125.306 108.176 125.327C111.88 125.327 113.478 129.322 113.478 133.317C113.478 141.406 110.226 152.995 100.526 152.995" fill="white"/>
<path d="M120.88 130.384L120.28 126.422C122.698 125.693 125.206 125.306 127.731 125.271C134.136 125.271 137.884 128.023 137.884 134.626V147.013C137.884 148.559 138.435 149.407 139.736 149.407C140.117 149.407 140.493 149.322 140.838 149.159L141.036 149.357C140.937 151.206 139.438 152.604 137.338 152.604C134.483 152.604 133.386 150.507 133.182 148.411H133.034C130.636 151.008 128.283 153.006 124.832 153.006C120.583 153.006 118.031 149.858 118.031 145.764C118.031 141.219 121.079 137.774 128.685 137.774C130.121 137.782 131.556 137.865 132.984 138.021V134.676C132.984 130.824 130.983 129.085 127.186 129.085C125.014 129.053 122.862 129.497 120.88 130.384M133.006 141.12C131.666 140.907 130.311 140.808 128.955 140.822C124.254 140.822 122.754 142.666 122.754 145.115C122.754 147.112 123.956 148.912 126.403 148.912C129.005 148.912 130.906 147.211 133.017 145.06L133.006 141.12Z" fill="white"/>
<path d="M182.197 152.604C179.496 152.604 178.4 150.458 178.4 147.811V133.179C178.4 130.681 176.95 129.536 175.247 129.536C172.094 129.536 169.394 132.783 167.442 134.879V152.202H162.592V133.179C162.592 130.681 161.143 129.536 159.44 129.536C156.292 129.536 153.592 132.783 151.641 134.879V152.202H146.79V125.739H151.492V131.033H151.641C154.341 127.935 157.439 124.941 161.595 124.941C163.015 124.932 164.39 125.448 165.453 126.389C166.803 127.588 167.255 129.283 167.404 131.033H167.453C170.154 127.935 173.257 124.941 177.407 124.941C178.828 124.934 180.201 125.449 181.266 126.389C183.013 127.935 183.266 130.285 183.266 132.53V147.332C183.266 148.433 183.663 149.429 184.815 149.429C185.165 149.429 185.509 149.344 185.818 149.181L186.017 149.379C185.917 151.228 184.313 152.626 182.214 152.626" fill="white"/>
<path d="M90.8588 27.7726C93.6106 27.7736 96.301 26.9598 98.5895 25.4341C100.878 23.9084 102.662 21.7393 103.716 19.2011C104.769 16.663 105.045 13.8699 104.509 11.1752C103.972 8.48047 102.647 6.00516 100.701 4.06241C98.7552 2.11966 96.2759 0.796735 93.5769 0.260997C90.8778 -0.27474 88.0803 0.000774195 85.5381 1.05269C82.9959 2.1046 80.8234 3.88565 79.2952 6.17054C77.767 8.45543 76.9519 11.1415 76.953 13.889C76.9545 17.5707 78.42 21.1012 81.0275 23.7045C83.635 26.3079 87.1712 27.7711 90.8588 27.7726" fill="white"/>
<path d="M69.4682 59.8376C72.16 59.8401 74.7939 59.0579 77.0467 57.587C89.3761 50.5544 98.7844 55.1712 101.689 56.9927C103.807 58.6065 106.344 59.5793 108.999 59.7955C111.654 60.0116 114.316 59.462 116.668 58.212C119.019 56.9619 120.962 55.0641 122.264 52.7439C123.567 50.4238 124.175 47.779 124.016 45.1239C123.857 42.4689 122.938 39.9152 121.368 37.7664C119.798 35.6177 117.643 33.9642 115.159 33.0026C112.675 32.0411 109.967 31.8118 107.356 32.3421C104.746 32.8723 102.343 34.1398 100.432 35.994C91.3107 42.5313 84.0023 39.6808 80.0836 36.99C78.5753 35.2089 76.6418 33.8359 74.4618 32.9978C72.2817 32.1597 69.9253 31.8834 67.61 32.1945C65.2948 32.5056 63.0954 33.394 61.2148 34.7778C59.3343 36.1615 57.8332 37.996 56.8501 40.1118C55.8671 42.2276 55.4338 44.5566 55.5902 46.8837C55.7467 49.2109 56.4878 51.4611 57.7452 53.4268C59.0026 55.3925 60.7357 57.0103 62.7846 58.1307C64.8335 59.2512 67.1321 59.8382 69.4682 59.8376Z" fill="white"/>
<path d="M133.629 66.2263C130.012 66.2221 126.536 67.6302 123.945 70.1498C114.823 76.6872 107.515 73.8367 103.602 71.1513C102.371 69.6967 100.854 68.5103 99.144 67.666C97.4345 66.8218 95.5693 66.3376 93.6644 66.2437C91.7595 66.1497 89.8556 66.448 88.0711 67.12C86.2866 67.792 84.6596 68.8233 83.2913 70.1498C74.1696 76.6872 66.8612 73.8422 62.948 71.1513C61.2181 69.1123 58.9357 67.6151 56.3746 66.8392C53.8135 66.0634 51.0826 66.0419 48.5096 66.7774C45.9365 67.5129 43.6308 68.9741 41.869 70.9856C40.1072 72.9971 38.9643 75.4735 38.5774 78.1176C38.1904 80.7617 38.576 83.461 39.6877 85.8917C40.7995 88.3224 42.5901 90.3811 44.8449 91.8208C47.0996 93.2605 49.7225 94.02 52.3989 94.0081C55.0753 93.9962 57.6913 93.2135 59.9331 91.7538C72.2626 84.7213 81.6709 89.3381 84.57 91.1595C86.8491 92.8911 89.6083 93.8775 92.4703 93.9839C95.3323 94.0902 98.1574 93.3114 100.559 91.7538C112.894 84.7158 122.302 89.3326 125.202 91.154C126.958 92.4898 129.007 93.3888 131.181 93.7768C133.354 94.1647 135.589 94.0304 137.7 93.3851C139.811 92.7397 141.737 91.6018 143.32 90.0654C144.904 88.529 146.098 86.6384 146.804 84.5499C147.51 82.4614 147.707 80.2351 147.381 78.0551C147.054 75.8751 146.212 73.8042 144.925 72.0135C143.637 70.2229 141.941 68.7641 139.977 67.7577C138.013 66.7514 135.837 66.2264 133.629 66.2263Z" fill="white"/>
</g>
<defs>
<clipPath id="clip0_13_5213">
<rect width="186" height="153" fill="white"/>
</clipPath>
</defs>
</svg>
